<?xml version="1.0" encoding="utf-8"?>
<!-- Generator: Adobe Illustrator 18.1.0, SVG Export Plug-In . SVG Version: 6.00 Build 0)  -->
<!DOCTYPE svg PUBLIC "-//W3C//DTD SVG 1.1//EN" "http://www.w3.org/Graphics/SVG/1.1/DTD/svg11.dtd">
<svg version="1.1" xmlns="http://www.w3.org/2000/svg" xmlns:xlink="http://www.w3.org/1999/xlink" x="0px" y="0px"
	 viewBox="0 0 34.9 34.9" enable-background="new 0 0 34.9 34.9" xml:space="preserve">
<g id="edit_1_">
	<circle fill="#FFFFFF" stroke="#CD2027" stroke-miterlimit="10" cx="17.3" cy="17.3" r="16.5"/>
	<g>
		<path fill="#CD2027" d="M26.8,13.7c0.2-0.9-1.1-3.3-2-3.5s-3.8,1.8-4.6,1.3C19.3,11,19.5,7.3,19,6.8s-3.4-0.6-4.1,0
			s-0.3,4.1-1.2,4.7S10,9.9,9.1,10.1c-0.9,0.2-2.2,2.5-2,3.5c0.2,1,3.6,2.3,3.5,3.3s-3.2,2.5-3.5,3.3c-0.3,0.9,0.8,3.3,2,3.5
			s3.8-1.7,4.6-1.3c0.8,0.4,0.4,3.9,1.2,4.7c0.7,0.7,3.4,0.7,4.1,0c0.7-0.7,0.1-4.2,1.2-4.7c1-0.5,3.6,1.6,4.6,1.3s2.3-2.5,2-3.5
			c-0.2-1-3.4-2.2-3.5-3.3C23.3,15.9,26.6,14.6,26.8,13.7z M16.9,19.8c-1.5,0-2.7-1.2-2.7-2.7s1.2-2.7,2.7-2.7
			c1.5,0,2.7,1.2,2.7,2.7S18.5,19.8,16.9,19.8z"/>
	</g>
</g>
</svg>
